<?xml version="1.0" encoding="UTF-8"?>
<svg width="300" height="200" viewBox="0 0 300 200" xmlns="http://www.w3.org/2000/svg">
  <!-- Background -->
  <rect width="300" height="200" fill="#f8fafc" stroke="#e2e8f0" stroke-width="1"/>
  
  <!-- Title -->
  <text x="150" y="20" text-anchor="middle" font-family="Arial, sans-serif" font-size="14" font-weight="bold" fill="#1e293b">Radiographie Bitewing</text>
  
  <!-- Upper teeth row -->
  <g fill="#f1f5f9" stroke="#94a3b8" stroke-width="1">
    <rect x="50" y="60" width="12" height="15" rx="1"/>
    <rect x="65" y="60" width="12" height="15" rx="1"/>
    <rect x="80" y="60" width="12" height="15" rx="1"/>
    <rect x="95" y="60" width="12" height="15" rx="1"/>
    <rect x="110" y="60" width="12" height="15" rx="1"/>
    <rect x="125" y="60" width="12" height="15" rx="1"/>
    <rect x="140" y="60" width="12" height="15" rx="1"/>
    <rect x="155" y="60" width="12" height="15" rx="1"/>
    <rect x="170" y="60" width="12" height="15" rx="1"/>
    <rect x="185" y="60" width="12" height="15" rx="1"/>
    <rect x="200" y="60" width="12" height="15" rx="1"/>
    <rect x="215" y="60" width="12" height="15" rx="1"/>
  </g>
  
  <!-- Lower teeth row -->
  <g fill="#f1f5f9" stroke="#94a3b8" stroke-width="1">
    <rect x="50" y="125" width="12" height="15" rx="1"/>
    <rect x="65" y="125" width="12" height="15" rx="1"/>
    <rect x="80" y="125" width="12" height="15" rx="1"/>
    <rect x="95" y="125" width="12" height="15" rx="1"/>
    <rect x="110" y="125" width="12" height="15" rx="1"/>
    <rect x="125" y="125" width="12" height="15" rx="1"/>
    <rect x="140" y="125" width="12" height="15" rx="1"/>
    <rect x="155" y="125" width="12" height="15" rx="1"/>
    <rect x="170" y="125" width="12" height="15" rx="1"/>
    <rect x="185" y="125" width="12" height="15" rx="1"/>
    <rect x="200" y="125" width="12" height="15" rx="1"/>
    <rect x="215" y="125" width="12" height="15" rx="1"/>
  </g>
  
  <!-- Dental fillings -->
  <g fill="#fbbf24">
    <circle cx="95" cy="67" r="2"/>
    <circle cx="125" cy="67" r="2"/>
    <circle cx="155" cy="67" r="2"/>
    <circle cx="95" cy="132" r="2"/>
    <circle cx="125" cy="132" r="2"/>
    <circle cx="155" cy="132" r="2"/>
  </g>
  
  <!-- Cavities -->
  <g fill="#ef4444">
    <circle cx="110" cy="67" r="1.5"/>
    <circle cx="140" cy="67" r="1.5"/>
    <circle cx="110" cy="132" r="1.5"/>
    <circle cx="140" cy="132" r="1.5"/>
  </g>
  
  <!-- Contact points -->
  <line x1="62" y1="75" x2="62" y2="125" stroke="#64748b" stroke-width="1" stroke-dasharray="2,2"/>
  <line x1="77" y1="75" x2="77" y2="125" stroke="#64748b" stroke-width="1" stroke-dasharray="2,2"/>
  <line x1="92" y1="75" x2="92" y2="125" stroke="#64748b" stroke-width="1" stroke-dasharray="2,2"/>
  <line x1="107" y1="75" x2="107" y2="125" stroke="#64748b" stroke-width="1" stroke-dasharray="2,2"/>
  <line x1="122" y1="75" x2="122" y2="125" stroke="#64748b" stroke-width="1" stroke-dasharray="2,2"/>
  <line x1="137" y1="75" x2="137" y2="125" stroke="#64748b" stroke-width="1" stroke-dasharray="2,2"/>
  <line x1="152" y1="75" x2="152" y2="125" stroke="#64748b" stroke-width="1" stroke-dasharray="2,2"/>
  <line x1="167" y1="75" x2="167" y2="125" stroke="#64748b" stroke-width="1" stroke-dasharray="2,2"/>
  <line x1="182" y1="75" x2="182" y2="125" stroke="#64748b" stroke-width="1" stroke-dasharray="2,2"/>
  <line x1="197" y1="75" x2="197" y2="125" stroke="#64748b" stroke-width="1" stroke-dasharray="2,2"/>
  <line x1="212" y1="75" x2="212" y2="125" stroke="#64748b" stroke-width="1" stroke-dasharray="2,2"/>
  <line x1="227" y1="75" x2="227" y2="125" stroke="#64748b" stroke-width="1" stroke-dasharray="2,2"/>
  
  <!-- Labels -->
  <text x="150" y="160" text-anchor="middle" font-family="Arial, sans-serif" font-size="10" fill="#64748b">Vue Bitewing</text>
  <text x="150" y="175" text-anchor="middle" font-family="Arial, sans-serif" font-size="8" fill="#94a3b8">Détection des caries interproximales</text>
  
  <!-- Legend -->
  <g font-family="Arial, sans-serif" font-size="8">
    <circle cx="50" cy="185" r="2" fill="#fbbf24"/>
    <text x="55" y="189" fill="#64748b">Obturation</text>
    <circle cx="120" cy="185" r="1.5" fill="#ef4444"/>
    <text x="125" y="189" fill="#64748b">Carie</text>
  </g>
</svg> 